<svg xmlns="http://www.w3.org/2000/svg" viewBox="0 0 324.15 104.25"><title>TikaText</title><g id="Layer_2" data-name="Layer 2"><g id="Layer_1-2" data-name="Layer 1"><path d="M85.2,23.4V44.85L75.75,46q-2-1.5-3.75-6.3H54v69.6q6,2.4,8.25,4.95l-1.5,12.45H25.65l-1.5-12.45q1.95-2.55,8.25-4.95V39.75h-18q-1.8,4.8-3.75,6.3L1.2,44.85V23.4Z" transform="translate(-1.2 -22.5)"/><path d="M127.8,23.25l1.5,12.45q-2.4,2.85-8.25,5.1v68.55q6,2.4,8.25,4.95l-1.5,12.45H92.7L91.2,114.3q1.95-2.55,8.25-4.95V40.8q-6.15-2.25-8.25-5.1l1.5-12.45Z" transform="translate(-1.2 -22.5)"/><path d="M175.5,23.25,177,35.7q-2.4,2.85-8.25,5.1v68.55q6,2.4,8.25,4.95l-1.5,12.45H140.4l-1.5-12.45q1.95-2.55,8.25-4.95V40.8q-6.15-2.25-8.25-5.1l1.5-12.45Zm52.35,103.5h-24.9l-33.3-54,25-33.3a15.91,15.91,0,0,1-5.85-4.05l1.5-12.15h34.2L226,35.4q-2.1,2.4-7.8,4.8l-26,31.95,23.7,35.7q9.75,2.1,13.35,6.45Z" transform="translate(-1.2 -22.5)"/><path d="M286.65,22.5,316.5,109q6.3,2.25,8.85,5.25l-1.5,12.45h-35.1l-1.5-12.45q1.8-2.4,7.2-4.5l-4-12.6h-30l-3.75,12.15a20.62,20.62,0,0,1,7.8,4.95l-1.5,12.45h-34.2l-1.5-12.45q2.7-3.45,10.05-5.7l28.8-86.1Zm-12.45,21q0,9.15-3.75,21.3L264.6,83.4H286l-5.7-18.3A74.12,74.12,0,0,1,276.45,46l-.15-2.55Z" transform="translate(-1.2 -22.5)"/></g></g></svg>